#!OML:ASF E:\motion texture\Top Level 1\Subject 1\Session 1\male.ASF
:FULLY-SPECIFIED
:DEGREES
405
root 26.7449 17.6243 5.89253 15.3008 -81.0233 -9.15951
lowerback -2.95857 0.583811 1.98816
upperback -4.33294 0.7054 2.05711
thorax -2.79702 0.287067 1.00668
lowerneck -1.36582 -1.79394 -9.07222
upperneck -20.4746 -1.81902 9.82316
head -5.71094 -1.12999 4.78521
rclavicle 4.47266e-016 -4.45278e-014
rhumerus 38.8319 19.4032 -73.5419
rradius 87.7031
rwrist -22.0901
rhand -9.82955 -38.0824
rfingers 7.12502
rthumb 16.1478 -67.4297
lclavicle 4.47266e-016 -4.45278e-014
lhumerus 33.2493 -13.5006 81.3093
lradius 90.1946
lwrist -0.542947
lhand -18.311 31.4879
lfingers 7.12502
lthumb 7.97015 61.3176
rfemur -29.1872 -1.14958 19.3961
rtibia 20.0727
rfoot -0.830833 -18.2081
rtoes 15.7179
lfemur -1.11965 -6.42978 -16.5234
ltibia 30.787
lfoot -4.62023 -10.1726
ltoes -13.1366
406
root 26.5951 17.6355 5.86957 16.6223 -80.8637 -10.5175
lowerback -2.91013 0.647506 2.24767
upperback -4.33028 0.789603 2.12653
thorax -2.81986 0.321821 0.933001
lowerneck -1.49025 -1.78877 -8.97321
upperneck -20.086 -1.8151 9.70196
head -5.57193 -1.11812 4.71301
rclavicle 1.83876e-015 -1.59028e-015
rhumerus 38.7247 19.9407 -73.6605
rradius 87.8651
rwrist -22.4209
rhand -9.90946 -38.6486
rfingers 7.12502
rthumb 16.0708 -68.0021
lclavicle 1.83876e-015 -1.59028e-015
lhumerus 32.8801 -13.4286 81.785
lradius 90.7129
lwrist -0.492135
lhand -18.497 32.0475
lfingers 7.12502
lthumb 7.79068 61.884
rfemur -28.8333 -1.12717 19.8496
rtibia 20.3104
rfoot -0.838095 -18.0429
rtoes 16.2373
lfemur -1.67502 -6.42757 -16.0366
ltibia 32.0038
lfoot -3.76949 -10.2479
ltoes -13.5152
407
root 26.4455 17.6473 5.84662 17.9364 -80.706 -11.8732
lowerback -2.86158 0.714778 2.51067
upperback -4.32751 0.878737 2.19562
thorax -2.84215 0.358829 0.857039
lowerneck -1.62692 -1.78878 -8.8635
upperneck -19.6667 -1.81762 9.57904
head -5.42125 -1.10952 4.6381
rclavicle 7.10655e-015 -2.06736e-014
rhumerus 38.5881 20.4903 -73.7849
rradius 88.0187
rwrist -22.7517
rhand -10.0032 -39.2381
rfingers 7.12502
rthumb 15.9805 -68.5989
lclavicle 7.10655e-015 -2.06736e-014
lhumerus 32.4707 -13.3826 82.2584
lradius 91.2081
lwrist -0.430755
lhand -18.6732 32.6099
lfingers 7.12502
lthumb 7.62061 62.4527
rfemur -28.4561 -1.10644 20.315
rtibia 20.5422
rfoot -0.871719 -17.8739
rtoes 16.7376
lfemur -2.27117 -6.41298 -15.5458
ltibia 33.2412
lfoot -2.93314 -10.2837
ltoes -13.8827
408
root 26.296 17.6597 5.8237 19.2401 -80.551 -13.2224
lowerback -2.80856 0.782526 2.7766
upperback -4.32722 0.968923 2.26591
thorax -2.86904 0.396104 0.780615
lowerneck -1.78119 -1.79221 -8.75215
upperneck -19.2121 -1.82375 9.45897
head -5.25676 -1.10234 4.5633
rclavicle -3.03147e-015 -1.82882e-014
rhumerus 38.4211 21.0621 -73.917
rradius 88.1633
rwrist -23.0837
rhand -10.1169 -39.8351
rfingers 7.12502
rthumb 15.8711 -69.2046
lclavicle -3.03147e-015 -1.82882e-014
lhumerus 32.0151 -13.3566 82.7241
lradius 91.6792
lwrist -0.362146
lhand -18.8593 33.1993
lfingers 7.12502
lthumb 7.44096 63.0484
rfemur -28.0561 -1.0842 20.7893
rtibia 20.76
rfoot -0.929073 -17.703
rtoes 17.2136
lfemur -2.90762 -6.38573 -15.0532
ltibia 34.4934
lfoot -2.12339 -10.2801
ltoes -14.2325
409
root 26.1468 17.6726 5.80091 20.5347 -80.3992 -14.5667
lowerback -2.7584 0.851807 3.04443
upperback -4.32422 1.06119 2.33732
thorax -2.89101 0.434337 0.704319
lowerneck -1.95166 -1.79962 -8.64095
upperneck -18.7291 -1.83408 9.34467
head -5.08089 -1.09707 4.49021
rclavicle 1.43622e-014 -3.97569e-015
rhumerus 38.2277 21.6526 -74.0532
rradius 88.2989
rwrist -23.4129
rhand -10.256 -40.4538
rfingers 7.12502
rthumb 15.7371 -69.834
lclavicle 1.43622e-014 -3.97569e-015
lhumerus 31.5207 -13.3525 83.1813
lradius 92.1222
lwrist -0.293721
lhand -19.0392 33.8237
lfingers 7.12502
lthumb 7.26732 63.6789
rfemur -27.6314 -1.05861 21.2708
rtibia 20.9565
rfoot -1.01168 -17.53
rtoes 17.662
lfemur -3.58153 -6.346 -14.5609
ltibia 35.7541
lfoot -1.35132 -10.2383
ltoes -14.5769
410
root 25.998 17.6858 5.77826 21.8039 -80.2521 -15.8883
lowerback -2.72723 0.922161 3.31314
upperback -4.30689 1.1538 2.40654
thorax -2.88686 0.47309 0.625576
lowerneck -2.14304 -1.81121 -8.52692
upperneck -18.2291 -1.84867 9.23747
head -4.89641 -1.09417 4.41906
rclavicle -7.55382e-015 9.54166e-015
rhumerus 38.0254 22.2554 -74.191
rradius 88.4248
rwrist -23.7382
rhand -10.4231 -41.1158
rfingers 7.12502
rthumb 15.5761 -70.5086
lclavicle -7.55382e-015 9.54166e-015
lhumerus 31.0063 -13.3683 83.621
lradius 92.534
lwrist -0.218097
lhand -19.2149 34.4458
lfingers 7.12502
lthumb 7.09767 64.3068
rfemur -27.1824 -1.02461 21.7533
rtibia 21.1256
rfoot -1.11778 -17.3599
rtoes 18.0792
lfemur -4.2918 -6.29319 -14.0739
ltibia 37.0171
lfoot -0.627382 -10.1612
ltoes -14.9141
411
root 25.8496 17.6994 5.75587 23.0529 -80.1098 -17.1929
lowerback -2.68212 0.9947 3.57762
upperback -4.30019 1.25039 2.47718
thorax -2.90113 0.513561 0.550511
lowerneck -2.34325 -1.82767 -8.41336
upperneck -17.6927 -1.86957 9.13371
head -4.69938 -1.09391 4.34893
rclavicle 4.47266e-015 1.19271e-014
rhumerus 37.7703 22.8765 -74.3438
rradius 88.5389
rwrist -24.0583
rhand -10.6251 -41.7824
rfingers 7.12502
rthumb 15.3816 -71.1902
lclavicle 4.47266e-015 1.19271e-014
lhumerus 30.43 -13.4114 84.0606
lradius 92.9179
lwrist -0.129933
lhand -19.3953 35.0554
lfingers 7.12502
lthumb 6.92361 64.9222
rfemur -26.7081 -0.984289 22.2369
rtibia 21.263
rfoot -1.2494 -17.1926
rtoes 18.466
lfemur -5.03434 -6.22723 -13.5931
ltibia 38.2741
lfoot 0.040073 -10.0509
ltoes -15.248
